<?xml version="1.0" encoding="UTF-8" standalone="no"?>
<!DOCTYPE svg PUBLIC "-//W3C//DTD SVG 1.1//EN"
 "http://www.w3.org/Graphics/SVG/1.1/DTD/svg11.dtd">
<!-- Generated by graphviz version 9.0.0 (20230911.1827)
 -->
<!-- Pages: 1 -->
<svg width="408pt" height="549pt"
 viewBox="0.00 0.00 408.00 548.75" xmlns="http://www.w3.org/2000/svg" xmlns:xlink="http://www.w3.org/1999/xlink">
<g id="graph0" class="graph" transform="scale(1 1) rotate(0) translate(4 544.75)">
<polygon fill="white" stroke="none" points="-4,4 -4,-544.75 404,-544.75 404,4 -4,4"/>
<!-- 11367601632 -->
<g id="node1" class="node">
<title>11367601632</title>
<polygon fill="#caff70" stroke="black" points="225,-31.25 161,-31.25 161,0 225,0 225,-31.25"/>
<text text-anchor="middle" x="193" y="-5.75" font-family="monospace" font-size="10.00"> (1, 99)</text>
</g>
<!-- 10827142960 -->
<g id="node2" class="node">
<title>10827142960</title>
<polygon fill="lightgrey" stroke="black" points="243,-86.5 143,-86.5 143,-67.25 243,-67.25 243,-86.5"/>
<text text-anchor="middle" x="193" y="-73" font-family="monospace" font-size="10.00">AddmmBackward0</text>
</g>
<!-- 10827142960&#45;&gt;11367601632 -->
<g id="edge20" class="edge">
<title>10827142960&#45;&gt;11367601632</title>
<path fill="none" stroke="black" d="M193,-66.88C193,-60.54 193,-51.7 193,-43.2"/>
<polygon fill="black" stroke="black" points="196.5,-43.22 193,-33.22 189.5,-43.22 196.5,-43.22"/>
</g>
<!-- 10827143344 -->
<g id="node3" class="node">
<title>10827143344</title>
<polygon fill="lightgrey" stroke="black" points="128,-141.75 28,-141.75 28,-122.5 128,-122.5 128,-141.75"/>
<text text-anchor="middle" x="78" y="-128.25" font-family="monospace" font-size="10.00">AccumulateGrad</text>
</g>
<!-- 10827143344&#45;&gt;10827142960 -->
<g id="edge1" class="edge">
<title>10827143344&#45;&gt;10827142960</title>
<path fill="none" stroke="black" d="M97.51,-122.09C115.52,-113.75 142.52,-101.25 163.23,-91.66"/>
<polygon fill="black" stroke="black" points="164.42,-94.97 172.02,-87.59 161.48,-88.61 164.42,-94.97"/>
</g>
<!-- 10811994816 -->
<g id="node4" class="node">
<title>10811994816</title>
<polygon fill="lightblue" stroke="black" points="110,-208.25 46,-208.25 46,-177.75 110,-177.75 110,-208.25"/>
<text text-anchor="middle" x="78" y="-194.75" font-family="monospace" font-size="10.00">fc3.bias</text>
<text text-anchor="middle" x="78" y="-183.5" font-family="monospace" font-size="10.00"> (99)</text>
</g>
<!-- 10811994816&#45;&gt;10827143344 -->
<g id="edge2" class="edge">
<title>10811994816&#45;&gt;10827143344</title>
<path fill="none" stroke="black" d="M78,-177.45C78,-170.21 78,-161.34 78,-153.44"/>
<polygon fill="black" stroke="black" points="81.5,-153.71 78,-143.71 74.5,-153.71 81.5,-153.71"/>
</g>
<!-- 10827142768 -->
<g id="node5" class="node">
<title>10827142768</title>
<polygon fill="lightgrey" stroke="black" points="240,-141.75 146,-141.75 146,-122.5 240,-122.5 240,-141.75"/>
<text text-anchor="middle" x="193" y="-128.25" font-family="monospace" font-size="10.00">ReluBackward0</text>
</g>
<!-- 10827142768&#45;&gt;10827142960 -->
<g id="edge3" class="edge">
<title>10827142768&#45;&gt;10827142960</title>
<path fill="none" stroke="black" d="M193,-122.33C193,-115.82 193,-106.67 193,-98.37"/>
<polygon fill="black" stroke="black" points="196.5,-98.37 193,-88.37 189.5,-98.37 196.5,-98.37"/>
</g>
<!-- 10827143536 -->
<g id="node6" class="node">
<title>10827143536</title>
<polygon fill="lightgrey" stroke="black" points="235,-202.62 135,-202.62 135,-183.38 235,-183.38 235,-202.62"/>
<text text-anchor="middle" x="185" y="-189.12" font-family="monospace" font-size="10.00">AddmmBackward0</text>
</g>
<!-- 10827143536&#45;&gt;10827142768 -->
<g id="edge4" class="edge">
<title>10827143536&#45;&gt;10827142768</title>
<path fill="none" stroke="black" d="M186.22,-183.06C187.28,-175.19 188.88,-163.45 190.26,-153.32"/>
<polygon fill="black" stroke="black" points="193.69,-154.03 191.57,-143.65 186.76,-153.09 193.69,-154.03"/>
</g>
<!-- 10827144304 -->
<g id="node7" class="node">
<title>10827144304</title>
<polygon fill="lightgrey" stroke="black" points="100,-269.12 0,-269.12 0,-249.88 100,-249.88 100,-269.12"/>
<text text-anchor="middle" x="50" y="-255.62" font-family="monospace" font-size="10.00">AccumulateGrad</text>
</g>
<!-- 10827144304&#45;&gt;10827143536 -->
<g id="edge5" class="edge">
<title>10827144304&#45;&gt;10827143536</title>
<path fill="none" stroke="black" d="M69.06,-249.4C91.67,-238.59 129.61,-220.46 155.91,-207.9"/>
<polygon fill="black" stroke="black" points="157.16,-211.18 164.68,-203.71 154.14,-204.86 157.16,-211.18"/>
</g>
<!-- 10811996976 -->
<g id="node8" class="node">
<title>10811996976</title>
<polygon fill="lightblue" stroke="black" points="82,-341.25 18,-341.25 18,-310.75 82,-310.75 82,-341.25"/>
<text text-anchor="middle" x="50" y="-327.75" font-family="monospace" font-size="10.00">fc2.bias</text>
<text text-anchor="middle" x="50" y="-316.5" font-family="monospace" font-size="10.00"> (256)</text>
</g>
<!-- 10811996976&#45;&gt;10827144304 -->
<g id="edge6" class="edge">
<title>10811996976&#45;&gt;10827144304</title>
<path fill="none" stroke="black" d="M50,-310.36C50,-301.58 50,-290.27 50,-280.65"/>
<polygon fill="black" stroke="black" points="53.5,-280.84 50,-270.84 46.5,-280.84 53.5,-280.84"/>
</g>
<!-- 10827144400 -->
<g id="node9" class="node">
<title>10827144400</title>
<polygon fill="lightgrey" stroke="black" points="212,-269.12 118,-269.12 118,-249.88 212,-249.88 212,-269.12"/>
<text text-anchor="middle" x="165" y="-255.62" font-family="monospace" font-size="10.00">ReluBackward0</text>
</g>
<!-- 10827144400&#45;&gt;10827143536 -->
<g id="edge7" class="edge">
<title>10827144400&#45;&gt;10827143536</title>
<path fill="none" stroke="black" d="M167.78,-249.53C170.65,-240.29 175.21,-225.58 178.91,-213.63"/>
<polygon fill="black" stroke="black" points="182.18,-214.93 181.79,-204.34 175.49,-212.85 182.18,-214.93"/>
</g>
<!-- 10827144112 -->
<g id="node10" class="node">
<title>10827144112</title>
<polygon fill="lightgrey" stroke="black" points="207,-335.62 107,-335.62 107,-316.38 207,-316.38 207,-335.62"/>
<text text-anchor="middle" x="157" y="-322.12" font-family="monospace" font-size="10.00">AddmmBackward0</text>
</g>
<!-- 10827144112&#45;&gt;10827144400 -->
<g id="edge8" class="edge">
<title>10827144112&#45;&gt;10827144400</title>
<path fill="none" stroke="black" d="M158.11,-316.03C159.25,-306.89 161.04,-292.39 162.52,-280.5"/>
<polygon fill="black" stroke="black" points="165.95,-281.25 163.71,-270.89 159.01,-280.39 165.95,-281.25"/>
</g>
<!-- 10827143728 -->
<g id="node11" class="node">
<title>10827143728</title>
<polygon fill="lightgrey" stroke="black" points="111,-402.12 11,-402.12 11,-382.88 111,-382.88 111,-402.12"/>
<text text-anchor="middle" x="61" y="-388.62" font-family="monospace" font-size="10.00">AccumulateGrad</text>
</g>
<!-- 10827143728&#45;&gt;10827144112 -->
<g id="edge9" class="edge">
<title>10827143728&#45;&gt;10827144112</title>
<path fill="none" stroke="black" d="M74.35,-382.53C89.74,-372.19 115.3,-355.02 133.93,-342.5"/>
<polygon fill="black" stroke="black" points="135.85,-345.43 142.2,-336.94 131.95,-339.62 135.85,-345.43"/>
</g>
<!-- 10811994336 -->
<g id="node12" class="node">
<title>10811994336</title>
<polygon fill="lightblue" stroke="black" points="93,-474.25 29,-474.25 29,-443.75 93,-443.75 93,-474.25"/>
<text text-anchor="middle" x="61" y="-460.75" font-family="monospace" font-size="10.00">fc1.bias</text>
<text text-anchor="middle" x="61" y="-449.5" font-family="monospace" font-size="10.00"> (256)</text>
</g>
<!-- 10811994336&#45;&gt;10827143728 -->
<g id="edge10" class="edge">
<title>10811994336&#45;&gt;10827143728</title>
<path fill="none" stroke="black" d="M61,-443.36C61,-434.58 61,-423.27 61,-413.65"/>
<polygon fill="black" stroke="black" points="64.5,-413.84 61,-403.84 57.5,-413.84 64.5,-413.84"/>
</g>
<!-- 10827143824 -->
<g id="node13" class="node">
<title>10827143824</title>
<polygon fill="lightgrey" stroke="black" points="205,-402.12 129,-402.12 129,-382.88 205,-382.88 205,-402.12"/>
<text text-anchor="middle" x="167" y="-388.62" font-family="monospace" font-size="10.00">TBackward0</text>
</g>
<!-- 10827143824&#45;&gt;10827144112 -->
<g id="edge11" class="edge">
<title>10827143824&#45;&gt;10827144112</title>
<path fill="none" stroke="black" d="M165.61,-382.53C164.19,-373.39 161.94,-358.89 160.1,-347"/>
<polygon fill="black" stroke="black" points="163.6,-346.73 158.61,-337.39 156.68,-347.81 163.6,-346.73"/>
</g>
<!-- 10827143632 -->
<g id="node14" class="node">
<title>10827143632</title>
<polygon fill="lightgrey" stroke="black" points="217,-468.62 117,-468.62 117,-449.38 217,-449.38 217,-468.62"/>
<text text-anchor="middle" x="167" y="-455.12" font-family="monospace" font-size="10.00">AccumulateGrad</text>
</g>
<!-- 10827143632&#45;&gt;10827143824 -->
<g id="edge12" class="edge">
<title>10827143632&#45;&gt;10827143824</title>
<path fill="none" stroke="black" d="M167,-449.03C167,-439.98 167,-425.7 167,-413.88"/>
<polygon fill="black" stroke="black" points="170.5,-413.91 167,-403.91 163.5,-413.91 170.5,-413.91"/>
</g>
<!-- 10820930032 -->
<g id="node15" class="node">
<title>10820930032</title>
<polygon fill="lightblue" stroke="black" points="208,-540.75 126,-540.75 126,-510.25 208,-510.25 208,-540.75"/>
<text text-anchor="middle" x="167" y="-527.25" font-family="monospace" font-size="10.00">fc1.weight</text>
<text text-anchor="middle" x="167" y="-516" font-family="monospace" font-size="10.00"> (256, 192)</text>
</g>
<!-- 10820930032&#45;&gt;10827143632 -->
<g id="edge13" class="edge">
<title>10820930032&#45;&gt;10827143632</title>
<path fill="none" stroke="black" d="M167,-509.86C167,-501.08 167,-489.77 167,-480.15"/>
<polygon fill="black" stroke="black" points="170.5,-480.34 167,-470.34 163.5,-480.34 170.5,-480.34"/>
</g>
<!-- 10827144496 -->
<g id="node16" class="node">
<title>10827144496</title>
<polygon fill="lightgrey" stroke="black" points="306,-269.12 230,-269.12 230,-249.88 306,-249.88 306,-269.12"/>
<text text-anchor="middle" x="268" y="-255.62" font-family="monospace" font-size="10.00">TBackward0</text>
</g>
<!-- 10827144496&#45;&gt;10827143536 -->
<g id="edge14" class="edge">
<title>10827144496&#45;&gt;10827143536</title>
<path fill="none" stroke="black" d="M256.46,-249.53C243.28,-239.29 221.46,-222.34 205.4,-209.85"/>
<polygon fill="black" stroke="black" points="207.95,-207.4 197.91,-204.03 203.65,-212.93 207.95,-207.4"/>
</g>
<!-- 10827143920 -->
<g id="node17" class="node">
<title>10827143920</title>
<polygon fill="lightgrey" stroke="black" points="325,-335.62 225,-335.62 225,-316.38 325,-316.38 325,-335.62"/>
<text text-anchor="middle" x="275" y="-322.12" font-family="monospace" font-size="10.00">AccumulateGrad</text>
</g>
<!-- 10827143920&#45;&gt;10827144496 -->
<g id="edge15" class="edge">
<title>10827143920&#45;&gt;10827144496</title>
<path fill="none" stroke="black" d="M274.03,-316.03C273.03,-306.89 271.46,-292.39 270.17,-280.5"/>
<polygon fill="black" stroke="black" points="273.69,-280.46 269.13,-270.9 266.73,-281.22 273.69,-280.46"/>
</g>
<!-- 10811995296 -->
<g id="node18" class="node">
<title>10811995296</title>
<polygon fill="lightblue" stroke="black" points="316,-407.75 234,-407.75 234,-377.25 316,-377.25 316,-407.75"/>
<text text-anchor="middle" x="275" y="-394.25" font-family="monospace" font-size="10.00">fc2.weight</text>
<text text-anchor="middle" x="275" y="-383" font-family="monospace" font-size="10.00"> (256, 256)</text>
</g>
<!-- 10811995296&#45;&gt;10827143920 -->
<g id="edge16" class="edge">
<title>10811995296&#45;&gt;10827143920</title>
<path fill="none" stroke="black" d="M275,-376.86C275,-368.08 275,-356.77 275,-347.15"/>
<polygon fill="black" stroke="black" points="278.5,-347.34 275,-337.34 271.5,-347.34 278.5,-347.34"/>
</g>
<!-- 10827142672 -->
<g id="node19" class="node">
<title>10827142672</title>
<polygon fill="lightgrey" stroke="black" points="357,-141.75 281,-141.75 281,-122.5 357,-122.5 357,-141.75"/>
<text text-anchor="middle" x="319" y="-128.25" font-family="monospace" font-size="10.00">TBackward0</text>
</g>
<!-- 10827142672&#45;&gt;10827142960 -->
<g id="edge17" class="edge">
<title>10827142672&#45;&gt;10827142960</title>
<path fill="none" stroke="black" d="M297.63,-122.09C277.71,-113.68 247.76,-101.02 225,-91.4"/>
<polygon fill="black" stroke="black" points="226.45,-88.21 215.87,-87.54 223.72,-94.66 226.45,-88.21"/>
</g>
<!-- 10827144016 -->
<g id="node20" class="node">
<title>10827144016</title>
<polygon fill="lightgrey" stroke="black" points="392,-202.62 292,-202.62 292,-183.38 392,-183.38 392,-202.62"/>
<text text-anchor="middle" x="342" y="-189.12" font-family="monospace" font-size="10.00">AccumulateGrad</text>
</g>
<!-- 10827144016&#45;&gt;10827142672 -->
<g id="edge18" class="edge">
<title>10827144016&#45;&gt;10827142672</title>
<path fill="none" stroke="black" d="M338.51,-183.06C335.37,-175.02 330.64,-162.93 326.63,-152.66"/>
<polygon fill="black" stroke="black" points="329.98,-151.6 323.08,-143.56 323.46,-154.15 329.98,-151.6"/>
</g>
<!-- 10811994976 -->
<g id="node21" class="node">
<title>10811994976</title>
<polygon fill="lightblue" stroke="black" points="400,-274.75 324,-274.75 324,-244.25 400,-244.25 400,-274.75"/>
<text text-anchor="middle" x="362" y="-261.25" font-family="monospace" font-size="10.00">fc3.weight</text>
<text text-anchor="middle" x="362" y="-250" font-family="monospace" font-size="10.00"> (99, 256)</text>
</g>
<!-- 10811994976&#45;&gt;10827144016 -->
<g id="edge19" class="edge">
<title>10811994976&#45;&gt;10827144016</title>
<path fill="none" stroke="black" d="M357.46,-243.86C354.68,-234.88 351.07,-223.26 348.05,-213.51"/>
<polygon fill="black" stroke="black" points="351.49,-212.78 345.18,-204.27 344.8,-214.86 351.49,-212.78"/>
</g>
</g>
</svg>
