<?xml version="1.0" encoding="UTF-8" standalone="no"?>
<!DOCTYPE svg PUBLIC "-//W3C//DTD SVG 1.1//EN"
 "http://www.w3.org/Graphics/SVG/1.1/DTD/svg11.dtd">
<!-- Generated by graphviz version 9.0.0 (20230911.1827)
 -->
<!-- Pages: 1 -->
<svg width="337pt" height="416pt"
 viewBox="0.00 0.00 337.00 415.75" xmlns="http://www.w3.org/2000/svg" xmlns:xlink="http://www.w3.org/1999/xlink">
<g id="graph0" class="graph" transform="scale(1 1) rotate(0) translate(4 411.75)">
<polygon fill="white" stroke="none" points="-4,4 -4,-411.75 333,-411.75 333,4 -4,4"/>
<!-- 10806806144 -->
<g id="node1" class="node">
<title>10806806144</title>
<polygon fill="#caff70" stroke="black" points="197,-31.25 133,-31.25 133,0 197,0 197,-31.25"/>
<text text-anchor="middle" x="165" y="-5.75" font-family="monospace" font-size="10.00"> (1, 99)</text>
</g>
<!-- 10824882496 -->
<g id="node2" class="node">
<title>10824882496</title>
<polygon fill="lightgrey" stroke="black" points="215,-86.5 115,-86.5 115,-67.25 215,-67.25 215,-86.5"/>
<text text-anchor="middle" x="165" y="-73" font-family="monospace" font-size="10.00">AddmmBackward0</text>
</g>
<!-- 10824882496&#45;&gt;10806806144 -->
<g id="edge13" class="edge">
<title>10824882496&#45;&gt;10806806144</title>
<path fill="none" stroke="black" d="M165,-66.88C165,-60.54 165,-51.7 165,-43.2"/>
<polygon fill="black" stroke="black" points="168.5,-43.22 165,-33.22 161.5,-43.22 168.5,-43.22"/>
</g>
<!-- 10822603008 -->
<g id="node3" class="node">
<title>10822603008</title>
<polygon fill="lightgrey" stroke="black" points="100,-141.75 0,-141.75 0,-122.5 100,-122.5 100,-141.75"/>
<text text-anchor="middle" x="50" y="-128.25" font-family="monospace" font-size="10.00">AccumulateGrad</text>
</g>
<!-- 10822603008&#45;&gt;10824882496 -->
<g id="edge1" class="edge">
<title>10822603008&#45;&gt;10824882496</title>
<path fill="none" stroke="black" d="M69.51,-122.09C87.52,-113.75 114.52,-101.25 135.23,-91.66"/>
<polygon fill="black" stroke="black" points="136.42,-94.97 144.02,-87.59 133.48,-88.61 136.42,-94.97"/>
</g>
<!-- 11367558096 -->
<g id="node4" class="node">
<title>11367558096</title>
<polygon fill="lightblue" stroke="black" points="82,-208.25 18,-208.25 18,-177.75 82,-177.75 82,-208.25"/>
<text text-anchor="middle" x="50" y="-194.75" font-family="monospace" font-size="10.00">fc2.bias</text>
<text text-anchor="middle" x="50" y="-183.5" font-family="monospace" font-size="10.00"> (99)</text>
</g>
<!-- 11367558096&#45;&gt;10822603008 -->
<g id="edge2" class="edge">
<title>11367558096&#45;&gt;10822603008</title>
<path fill="none" stroke="black" d="M50,-177.45C50,-170.21 50,-161.34 50,-153.44"/>
<polygon fill="black" stroke="black" points="53.5,-153.71 50,-143.71 46.5,-153.71 53.5,-153.71"/>
</g>
<!-- 10821806688 -->
<g id="node5" class="node">
<title>10821806688</title>
<polygon fill="lightgrey" stroke="black" points="212,-141.75 118,-141.75 118,-122.5 212,-122.5 212,-141.75"/>
<text text-anchor="middle" x="165" y="-128.25" font-family="monospace" font-size="10.00">ReluBackward0</text>
</g>
<!-- 10821806688&#45;&gt;10824882496 -->
<g id="edge3" class="edge">
<title>10821806688&#45;&gt;10824882496</title>
<path fill="none" stroke="black" d="M165,-122.33C165,-115.82 165,-106.67 165,-98.37"/>
<polygon fill="black" stroke="black" points="168.5,-98.37 165,-88.37 161.5,-98.37 168.5,-98.37"/>
</g>
<!-- 10826614480 -->
<g id="node6" class="node">
<title>10826614480</title>
<polygon fill="lightgrey" stroke="black" points="211,-202.62 111,-202.62 111,-183.38 211,-183.38 211,-202.62"/>
<text text-anchor="middle" x="161" y="-189.12" font-family="monospace" font-size="10.00">AddmmBackward0</text>
</g>
<!-- 10826614480&#45;&gt;10821806688 -->
<g id="edge4" class="edge">
<title>10826614480&#45;&gt;10821806688</title>
<path fill="none" stroke="black" d="M161.61,-183.06C162.14,-175.19 162.94,-163.45 163.63,-153.32"/>
<polygon fill="black" stroke="black" points="167.1,-153.88 164.28,-143.66 160.11,-153.4 167.1,-153.88"/>
</g>
<!-- 10826614240 -->
<g id="node7" class="node">
<title>10826614240</title>
<polygon fill="lightgrey" stroke="black" points="117,-269.12 17,-269.12 17,-249.88 117,-249.88 117,-269.12"/>
<text text-anchor="middle" x="67" y="-255.62" font-family="monospace" font-size="10.00">AccumulateGrad</text>
</g>
<!-- 10826614240&#45;&gt;10826614480 -->
<g id="edge5" class="edge">
<title>10826614240&#45;&gt;10826614480</title>
<path fill="none" stroke="black" d="M80.07,-249.53C95.14,-239.19 120.17,-222.02 138.41,-209.5"/>
<polygon fill="black" stroke="black" points="140.22,-212.5 146.49,-203.96 136.26,-206.73 140.22,-212.5"/>
</g>
<!-- 11367600672 -->
<g id="node8" class="node">
<title>11367600672</title>
<polygon fill="lightblue" stroke="black" points="99,-341.25 35,-341.25 35,-310.75 99,-310.75 99,-341.25"/>
<text text-anchor="middle" x="67" y="-327.75" font-family="monospace" font-size="10.00">fc1.bias</text>
<text text-anchor="middle" x="67" y="-316.5" font-family="monospace" font-size="10.00"> (256)</text>
</g>
<!-- 11367600672&#45;&gt;10826614240 -->
<g id="edge6" class="edge">
<title>11367600672&#45;&gt;10826614240</title>
<path fill="none" stroke="black" d="M67,-310.36C67,-301.58 67,-290.27 67,-280.65"/>
<polygon fill="black" stroke="black" points="70.5,-280.84 67,-270.84 63.5,-280.84 70.5,-280.84"/>
</g>
<!-- 10826613952 -->
<g id="node9" class="node">
<title>10826613952</title>
<polygon fill="lightgrey" stroke="black" points="211,-269.12 135,-269.12 135,-249.88 211,-249.88 211,-269.12"/>
<text text-anchor="middle" x="173" y="-255.62" font-family="monospace" font-size="10.00">TBackward0</text>
</g>
<!-- 10826613952&#45;&gt;10826614480 -->
<g id="edge7" class="edge">
<title>10826613952&#45;&gt;10826614480</title>
<path fill="none" stroke="black" d="M171.33,-249.53C169.63,-240.39 166.93,-225.89 164.72,-214"/>
<polygon fill="black" stroke="black" points="168.2,-213.57 162.93,-204.38 161.32,-214.85 168.2,-213.57"/>
</g>
<!-- 11379837728 -->
<g id="node10" class="node">
<title>11379837728</title>
<polygon fill="lightgrey" stroke="black" points="223,-335.62 123,-335.62 123,-316.38 223,-316.38 223,-335.62"/>
<text text-anchor="middle" x="173" y="-322.12" font-family="monospace" font-size="10.00">AccumulateGrad</text>
</g>
<!-- 11379837728&#45;&gt;10826613952 -->
<g id="edge8" class="edge">
<title>11379837728&#45;&gt;10826613952</title>
<path fill="none" stroke="black" d="M173,-316.03C173,-306.98 173,-292.7 173,-280.88"/>
<polygon fill="black" stroke="black" points="176.5,-280.91 173,-270.91 169.5,-280.91 176.5,-280.91"/>
</g>
<!-- 11367601392 -->
<g id="node11" class="node">
<title>11367601392</title>
<polygon fill="lightblue" stroke="black" points="214,-407.75 132,-407.75 132,-377.25 214,-377.25 214,-407.75"/>
<text text-anchor="middle" x="173" y="-394.25" font-family="monospace" font-size="10.00">fc1.weight</text>
<text text-anchor="middle" x="173" y="-383" font-family="monospace" font-size="10.00"> (256, 192)</text>
</g>
<!-- 11367601392&#45;&gt;11379837728 -->
<g id="edge9" class="edge">
<title>11367601392&#45;&gt;11379837728</title>
<path fill="none" stroke="black" d="M173,-376.86C173,-368.08 173,-356.77 173,-347.15"/>
<polygon fill="black" stroke="black" points="176.5,-347.34 173,-337.34 169.5,-347.34 176.5,-347.34"/>
</g>
<!-- 10821804672 -->
<g id="node12" class="node">
<title>10821804672</title>
<polygon fill="lightgrey" stroke="black" points="310,-141.75 234,-141.75 234,-122.5 310,-122.5 310,-141.75"/>
<text text-anchor="middle" x="272" y="-128.25" font-family="monospace" font-size="10.00">TBackward0</text>
</g>
<!-- 10821804672&#45;&gt;10824882496 -->
<g id="edge10" class="edge">
<title>10821804672&#45;&gt;10824882496</title>
<path fill="none" stroke="black" d="M253.85,-122.09C237.32,-113.87 212.66,-101.59 193.5,-92.06"/>
<polygon fill="black" stroke="black" points="195.11,-88.95 184.6,-87.63 191.99,-95.22 195.11,-88.95"/>
</g>
<!-- 10826616160 -->
<g id="node13" class="node">
<title>10826616160</title>
<polygon fill="lightgrey" stroke="black" points="329,-202.62 229,-202.62 229,-183.38 329,-183.38 329,-202.62"/>
<text text-anchor="middle" x="279" y="-189.12" font-family="monospace" font-size="10.00">AccumulateGrad</text>
</g>
<!-- 10826616160&#45;&gt;10821804672 -->
<g id="edge11" class="edge">
<title>10826616160&#45;&gt;10821804672</title>
<path fill="none" stroke="black" d="M277.94,-183.06C277,-175.19 275.61,-163.45 274.4,-153.32"/>
<polygon fill="black" stroke="black" points="277.91,-153.17 273.25,-143.65 270.96,-154 277.91,-153.17"/>
</g>
<!-- 11367600592 -->
<g id="node14" class="node">
<title>11367600592</title>
<polygon fill="lightblue" stroke="black" points="317,-274.75 241,-274.75 241,-244.25 317,-244.25 317,-274.75"/>
<text text-anchor="middle" x="279" y="-261.25" font-family="monospace" font-size="10.00">fc2.weight</text>
<text text-anchor="middle" x="279" y="-250" font-family="monospace" font-size="10.00"> (99, 256)</text>
</g>
<!-- 11367600592&#45;&gt;10826616160 -->
<g id="edge12" class="edge">
<title>11367600592&#45;&gt;10826616160</title>
<path fill="none" stroke="black" d="M279,-243.86C279,-235.08 279,-223.77 279,-214.15"/>
<polygon fill="black" stroke="black" points="282.5,-214.34 279,-204.34 275.5,-214.34 282.5,-214.34"/>
</g>
</g>
</svg>
